<svg width="128" height="128" viewBox="0 0 128 128" fill="none" xmlns="http://www.w3.org/2000/svg">
  <defs>
    <linearGradient id="bgGradient" x1="18" y1="16" x2="110" y2="112" gradientUnits="userSpaceOnUse">
      <stop stop-color="#0B5C8F"/>
      <stop offset="1" stop-color="#1CA77B"/>
    </linearGradient>
    <linearGradient id="signalGradient" x1="36" y1="26" x2="92" y2="92" gradientUnits="userSpaceOnUse">
      <stop stop-color="#FFFFFF"/>
      <stop offset="1" stop-color="#D6F3FF"/>
    </linearGradient>
  </defs>

  <rect x="6" y="6" width="116" height="116" rx="32" fill="url(#bgGradient)"/>
  <circle cx="64" cy="72" r="27" stroke="url(#signalGradient)" stroke-width="5"/>
  <path d="M37 72H91" stroke="url(#signalGradient)" stroke-width="4.5" stroke-linecap="round"/>
  <path d="M64 45V99" stroke="url(#signalGradient)" stroke-width="4.5" stroke-linecap="round"/>
  <path d="M64 45C55 52 55 92 64 99" stroke="url(#signalGradient)" stroke-width="3.5" stroke-linecap="round"/>
  <path d="M64 45C73 52 73 92 64 99" stroke="url(#signalGradient)" stroke-width="3.5" stroke-linecap="round"/>

  <path d="M40 31C47 23 56 19 64 19C72 19 81 23 88 31" stroke="#FFFFFF" stroke-width="5" stroke-linecap="round"/>
  <path d="M49 39C53 34 58 31 64 31C70 31 75 34 79 39" stroke="#FFFFFF" stroke-width="5" stroke-linecap="round"/>
  <circle cx="64" cy="43" r="4" fill="#FFFFFF"/>
</svg>
